<?xml version="1.0" standalone="no"?><!DOCTYPE svg PUBLIC "-//W3C//DTD SVG 1.1//EN" "http://www.w3.org/Graphics/SVG/1.1/DTD/svg11.dtd"><svg t="1595465751287" class="icon" viewBox="0 0 1024 1024" version="1.1" xmlns="http://www.w3.org/2000/svg" p-id="1903" xmlns:xlink="http://www.w3.org/1999/xlink" width="200" height="200"><defs><style type="text/css"></style></defs><path d="M285.53728 733.24032h285.5936l101.71904 109.54752 29.4656 141.23008H158.32064l17.67424-125.38368 109.5424-125.39392z" fill="#68CAFE" p-id="1904"></path><path d="M71.35744 396.41088c0 198.02624 160.53248 358.56384 358.56896 358.56384 198.03136 0 358.56384-160.5376 358.56384-358.56384 0-198.03136-160.53248-358.56896-358.56384-358.56896S71.35744 198.37952 71.35744 396.41088z" fill="#68CAFE" p-id="1905"></path><path d="M663.19872 126.73024c45.21984 60.0064 72.03328 134.67136 72.03328 215.59296 0 198.03136-160.53248 358.56896-358.56896 358.56896-84.72064 0-162.57024-29.38368-223.93344-78.5152 65.43872 86.83008 169.42592 142.976 286.53056 142.976 198.03136 0 358.56384-160.5376 358.56384-358.56896 0.00512-113.31072-52.55168-214.34368-134.62528-280.05376z" fill="#29ABE2" p-id="1906"></path><path d="M90.624 328.75008c-4.25984 42.8544 198.58944-59.33056 213.25824-126.82752 158.464 96.83968 405.5296 137.4208 471.27552 133.26848-22.2976-74.57792-86.07744-300.53888-349.10208-300.53888-263.02976 0.00512-328.70912 226.4576-335.43168 294.09792z" fill="#FEDD5D" p-id="1907"></path><path d="M426.0608 772.57728c-207.42144 0-376.15616-168.76032-376.15616-376.17664S218.63936 20.24448 426.0608 20.24448s376.15616 168.73472 376.15616 376.15104-168.73472 376.18176-376.15616 376.18176z m0-718.33088c-188.65664 0-342.15424 153.49248-342.15424 342.15424s153.49248 342.1696 342.15424 342.1696c188.65664 0 342.14912-153.50784 342.14912-342.1696s-153.49248-342.15424-342.14912-342.15424z" fill="#000000" p-id="1908"></path><path d="M659.66592 847.48288s3.5328-57.38496-18.17088-48.0768c-49.15712 68.72064-103.424 111.5904-195.61472 120.89856-163.01056 16.45056-263.85408-39.35744-263.85408-39.35744l-16.7168 70.82496-6.9888 32.23552h543.99488v-78.4384l-42.6496-58.0864z" fill="#29ABE2" p-id="1909"></path><path d="M702.31552 1001.03168H158.32064a17.06496 17.06496 0 0 1-12.04224-4.98176 17.0496 17.0496 0 0 1-4.9664-12.05248c0.18944-109.91616 55.15776-212.62336 143.46752-268.04224 7.90016-5.0176 18.42688-2.59584 23.424 5.376a17.01376 17.01376 0 0 1-5.36064 23.44448c-73.94816 46.3872-121.6 130.4576-127.01696 222.24384h508.95872c-5.45792-93.30688-54.31296-178.14528-130.19648-224.2048a17.01376 17.01376 0 0 1-5.69856-23.3728 17.06496 17.06496 0 0 1 23.36256-5.7088c90.52672 54.98368 146.87744 158.55616 147.05664 270.25408a16.9984 16.9984 0 0 1-16.99328 17.04448z" fill="#000000" p-id="1910"></path><path d="M707.57376 986.77248c-12.14976 0-22.03648-10.40384-22.03648-23.19872v-241.3056c0-12.78464 9.88672-23.1936 22.03648-23.1936h239.3344c12.14976 0 22.03648 10.40896 22.03648 23.1936v241.3056c0 12.79488-9.88672 23.19872-22.03648 23.19872h-239.3344z" fill="#68CAFE" p-id="1911"></path><path d="M701.33248 983.12704h239.32928c12.15488 0 22.0416-10.39872 22.0416-23.18848v-241.3056a23.72608 23.72608 0 0 0-6.08768-15.9232l-260.65408 279.64416c1.73056 0.4608 3.5072 0.77312 5.37088 0.77312z" fill="#FEDD5D" p-id="1912"></path><path d="M946.90816 1001.03168h-239.3344c-20.01408 0-36.3008-16.79872-36.3008-37.45792v-241.3056c0-20.65408 16.28672-37.45792 36.3008-37.45792h239.3344c20.01408 0 36.3008 16.80384 36.3008 37.45792v241.3056c0 20.65408-16.2816 37.45792-36.3008 37.45792z m-239.3344-287.69792c-4.28032 0-7.77216 4.00384-7.77216 8.92928v241.3056c0 4.92544 3.49184 8.9344 7.77216 8.9344h239.3344c4.28544 0 7.77216-4.00896 7.77216-8.9344v-241.3056c0-4.92544-3.48672-8.92928-7.77216-8.92928h-239.3344z" fill="#000000" p-id="1913"></path><path d="M927.47776 920.71936h-196.28544c-4.864 0-8.11008 3.2512-8.11008 8.11008 0 4.864 3.24608 8.1152 8.11008 8.1152h196.28544c4.864 0 8.10496-3.2512 8.10496-8.1152 0-4.85888-4.05504-8.11008-8.10496-8.11008zM927.47776 833.536h-196.28544c-4.864 0-8.11008 3.24096-8.11008 8.11008 0 4.864 3.24608 8.11008 8.11008 8.11008h196.28544c4.864 0 8.10496-3.24608 8.10496-8.11008 0-4.87424-4.05504-8.11008-8.10496-8.11008zM927.47776 747.35616h-196.28544c-4.864 0-8.11008 3.2512-8.11008 8.11008 0 4.864 3.24608 8.11008 8.11008 8.11008h196.28544c4.864 0 8.10496-3.24608 8.10496-8.11008 0-4.86912-4.05504-8.11008-8.10496-8.11008zM584.42752 534.31296c0-0.0768 0.0256-0.1536 0.0256-0.23552a14.71488 14.71488 0 1 0-29.44 0c0.10752 1.47456 0.22528 2.94912 0.22528 4.4544 0 30.6176-24.832 55.44448-55.46496 55.44448-29.48096 0-53.52448-23.02464-55.28064-52.07552 0.24064-2.57536 0-7.82336 0-7.82336a14.592 14.592 0 0 0-29.184 0s-0.30208 5.98016-0.2816 6.74816c-3.33824 27.43296-26.66496 48.70144-55.00416 48.70144-30.6176 0-55.43936-24.81664-55.45472-55.42912v-0.02048c0-8.23808-6.09792-14.92992-14.34624-14.92992s-14.82752 6.69184-14.82752 14.92992c0 1.43872-0.41472 2.80576-0.03072 4.13184 2.176 44.86144 39.25504 80.73216 84.65408 80.73216 28.04224 0 52.87424-13.73184 68.33152-34.74944 15.104 23.53664 41.44128 39.19872 71.41376 39.19872 46.7968 0 84.86912-38.07232 84.86912-84.85376 0.01024-1.42848-0.12288-2.816-0.2048-4.224z" fill="#000000" p-id="1914"></path></svg>